<svg width="1440" height="229" viewBox="0 0 1440 229" fill="none" xmlns="http://www.w3.org/2000/svg">
<path d="M151.716 228.365H0V0.132324H151.716V228.365ZM8.40527 106.697V219.974H90.7764V157.881H126.078V219.974H142.889V10.2017L8.40527 106.697Z" fill="white"/>
<path d="M1248.79 0H1298.47L1397.18 169.47V0H1440V228.318H1388.68L1291.28 63.3503V228.318H1248.79V0Z" fill="white"/>
<path d="M1128.67 228.365C1059.69 228.365 1017.84 184.994 1017.84 114.556C1017.84 43.5023 1059.69 0.131836 1128.67 0.131836C1197.98 0.131836 1239.18 43.5023 1239.18 114.556C1239.18 184.994 1197.98 228.365 1128.67 228.365ZM1062.31 114.556C1062.31 163.771 1086.83 193.607 1128.67 193.607C1170.52 193.607 1195.37 163.771 1195.37 114.556C1195.37 64.7261 1170.52 34.8897 1128.67 34.8897C1086.83 34.8897 1062.31 64.7261 1062.31 114.556Z" fill="white"/>
<path d="M1027.27 0V36.338H956.668V228.318H914.176V36.338H843.901V0H1027.27Z" fill="white"/>
<path d="M761.969 0C810.017 0 844.011 25.4044 844.011 68.8171C844.011 96.7942 826.36 116.41 803.48 122.842C827.341 126.379 837.8 138.277 840.089 162.396L845.972 228.318H803.153L798.25 168.505C796.616 148.568 784.522 142.136 755.104 142.136H707.383V228.318H664.891V0H761.969ZM707.383 105.477H757.392C784.849 105.477 800.211 93.5784 800.211 71.3897C800.211 48.8794 784.849 36.338 757.392 36.338H707.383V105.477Z" fill="white"/>
<path d="M543.82 228.365C474.838 228.365 432.99 184.994 432.99 114.556C432.99 43.5023 474.838 0.131836 543.82 0.131836C613.129 0.131836 654.323 43.5023 654.323 114.556C654.323 184.994 613.129 228.365 543.82 228.365ZM477.453 114.556C477.453 163.771 501.973 193.607 543.82 193.607C585.667 193.607 610.514 163.771 610.514 114.556C610.514 64.7261 585.667 34.8897 543.82 34.8897C501.973 34.8897 477.453 64.7261 477.453 114.556Z" fill="white"/>
<path d="M176.782 0H233.982L298.047 176.866L361.785 0H419.313V228.318H376.821V71.3897L318.313 227.997H277.782L219.274 71.3897V228.318H176.782V0Z" fill="white"/>
</svg>
